<svg width="675" height="272" viewBox="0 0 675 272" fill="none" xmlns="http://www.w3.org/2000/svg">
<mask id="mask0_2256_472" style="mask-type:alpha" maskUnits="userSpaceOnUse" x="345" y="96" width="145" height="108">
<path d="M362.577 186.709C362.577 186.709 401.986 179.89 411.308 156.023C420.63 132.155 418.968 109.519 392.836 114.325C366.704 119.13 382.181 144.744 389.246 148.594C396.311 152.444 416.772 159.365 437.149 148.967C458.131 138.261 472.603 120.294 472.603 120.294" stroke="#85AFFF" stroke-width="33.8625" stroke-linecap="round"/>
</mask>
<g mask="url(#mask0_2256_472)">
<path d="M411.803 158.988C410.252 161.731 407.488 165.273 404.397 168.582C401.125 172.086 397.532 175.282 394.693 176.973L394.136 177.291C385.019 182.244 375.636 186.641 365.236 188.116L365.226 188.117L365.217 188.119C364.179 188.318 362.95 188.535 361.93 188.38C361.428 188.304 361.006 188.141 360.688 187.867C360.377 187.598 360.133 187.195 360.029 186.573C359.91 185.781 360.168 185.227 360.606 184.816C361.007 184.44 361.572 184.175 362.18 183.998L362.443 183.928L362.448 183.926C370.192 181.921 379.201 179.125 387.239 174.931C394.899 170.933 401.711 165.646 405.699 158.53C407.631 158.834 409.7 159.002 411.803 158.988ZM412.345 157.966L412.345 157.967C412.308 158.042 412.268 158.117 412.229 158.194C410.12 158.234 408.039 158.086 406.097 157.797C406.153 157.691 406.21 157.586 406.264 157.479L408.327 154.163C410.112 154.231 412.017 154.045 414.42 153.73L412.345 157.966ZM389.269 112.635C393.677 111.043 398.635 110.692 402.881 112.011L403.289 112.144C408.704 113.988 412.573 116.658 415.039 120.269C417.428 123.768 418.53 128.195 418.394 133.709L418.377 134.245C418.137 140.386 417.405 146.394 415.051 152.443L414.836 152.881C412.403 153.209 410.526 153.412 408.81 153.388L409.135 152.866L409.147 152.848L409.155 152.829C413.567 143.734 415.537 133.966 413.595 126.596C412.621 122.899 410.658 119.796 407.521 117.706C404.485 115.683 400.387 114.633 395.1 114.866L394.585 114.892L394.574 114.893C389.396 115.349 385.55 117.702 383.25 121.101C381.026 124.389 380.27 128.622 381.108 132.989L381.195 133.413C382.298 138.542 385.564 142.494 389.289 145.502C392.549 148.135 396.184 150.063 399.087 151.439L400.283 151.996C403.085 153.277 405.206 153.909 407.435 154.107L405.582 157.087L405.573 157.101L405.565 157.117C405.472 157.302 405.373 157.483 405.276 157.665C403.582 157.372 402.011 156.975 400.641 156.505L399.968 156.263C392.311 153.363 385.21 148.863 380.944 142.925C376.698 137.013 375.239 129.653 378.883 120.93C380.813 117.22 384.72 114.277 389.269 112.635ZM472.305 115.127C474.535 114.788 476.035 115.156 476.949 116.053C477.812 116.901 478.246 118.31 478.168 120.348L478.146 120.764C477.664 127.827 475.595 134.533 473.239 141.179L472.764 142.508C472.383 143.561 471.794 144.364 471.046 144.809C470.355 145.219 469.486 145.35 468.423 145.033L468.208 144.964L468.207 144.964C466.997 144.546 466.436 143.861 466.22 143.065C466.023 142.338 466.102 141.473 466.341 140.549L466.453 140.15L466.453 140.149C467.708 135.978 469.116 131.857 470.462 127.7L470.48 127.646L470.481 127.589C470.491 127.204 470.39 126.764 470.001 126.596C469.664 126.45 469.332 126.603 469.094 126.802L468.998 126.89C461.576 134.224 452.835 141.748 443.384 147.584C434.226 153.239 424.422 157.298 414.519 158.081L413.56 158.146C413.414 158.155 413.268 158.158 413.123 158.165L415.358 153.605L416.405 153.461C426.597 152.037 434.634 147.419 442.073 141.925C445.79 139.181 449.369 136.209 452.986 133.309C456.609 130.406 460.276 127.57 464.19 125.076L464.254 125.035L464.299 124.974C464.436 124.782 464.55 124.58 464.62 124.379C464.689 124.182 464.727 123.954 464.669 123.73C464.606 123.489 464.442 123.302 464.21 123.193C464.047 123.117 463.857 123.081 463.65 123.075L463.438 123.078C462.45 123.135 460.722 123.42 458.725 123.72C456.712 124.023 454.395 124.348 452.184 124.497C449.966 124.647 447.891 124.618 446.347 124.233C444.893 123.87 444.037 123.231 443.836 122.245L443.804 122.043C443.733 121.283 443.967 120.789 444.342 120.446C444.688 120.13 445.184 119.918 445.76 119.788L446.013 119.737L446.014 119.736C453.686 118.344 461.33 116.884 469.011 115.644L472.305 115.127Z" fill="#6DB88C" stroke="#6DB88C" stroke-width="0.7875"/>
</g>
<mask id="mask1_2256_472" style="mask-type:luminance" maskUnits="userSpaceOnUse" x="118" y="0" width="274" height="272">
<path d="M118 272H392V0H118V272Z" fill="white"/>
</mask>
<g mask="url(#mask1_2256_472)">
<path d="M133.09 241.215L136.368 146.083L137.615 109.894L316.395 129.809L343.55 118.428L339.025 135.498H377.496L372.378 191.995L365.426 268.716L271.134 253.543L133.09 241.215Z" fill="#6DB88C"/>
<mask id="mask2_2256_472" style="mask-type:alpha" maskUnits="userSpaceOnUse" x="133" y="109" width="245" height="160">
<path d="M133.09 241.215L136.368 146.083L137.615 109.894L316.395 129.809L343.55 118.428L339.025 135.498H377.496L372.378 191.995L365.426 268.716L271.134 253.543L133.09 241.215Z" fill="#ECAB29"/>
</mask>
<g mask="url(#mask2_2256_472)">
<path d="M281.335 304.055C268.793 248.302 230.246 194.848 157.436 115.147C159.629 111.507 176.22 112.849 225.045 147.334C214.44 134.434 184.052 103.076 147.341 80.8522C160.802 77.212 202.713 100.395 247.684 136.414C242.483 128.176 213.726 92.7314 182.216 67.0582C199.96 70.315 252.12 99.8197 292.195 141.395C289.697 133.923 284.792 116.91 285.159 108.633C309.174 133.54 358.488 191.247 363.628 222.821C359.651 211.9 339.307 195.998 322.328 183.353C329.721 194.656 345.456 220.561 349.249 233.742C344.049 220.714 324.011 204.236 314.833 199.83C327.937 223.523 353.165 286.965 349.249 351.186C349.709 339.69 323.093 274.742 295.254 246.77C298.314 251.559 300.454 263.82 299.537 270.91C295.611 261.266 285.588 241.405 276.899 239.105C289.595 256.54 286.994 287.769 281.335 304.055Z" fill="#4C8061"/>
</g>
</g>
<path d="M189.047 171.812C189.609 172 189.891 172.41 189.891 173.043L189.469 186.332L190.102 199.164C190.102 203.383 189.656 205.492 188.766 205.492H188.555C187.406 205.492 185.707 202.176 183.457 195.543C183.457 195.168 183.352 194.934 183.141 194.84C181.781 199.199 180.41 202.645 179.027 205.176L178.395 205.246C177.668 205.246 177.223 204.285 177.059 202.363C174.762 189.449 173.613 179.969 173.613 173.922C173.613 173.102 173.988 172.691 174.738 172.691C175.324 172.691 175.664 173.184 175.758 174.168C175.758 180.145 176.789 188.84 178.852 200.254H178.922C179.672 199.082 180.738 195.871 182.121 190.621C182.121 189.449 182.531 188.863 183.352 188.863C184.031 188.863 184.441 189.648 184.582 191.219C185.215 194.734 186.281 197.98 187.781 200.957L187.922 201.062L188.027 200.957V199.164L187.359 186.016L187.781 172.691C187.781 172.176 188.203 171.883 189.047 171.812ZM194.004 171.32C194.59 171.32 194.93 171.766 195.023 172.656H194.918L195.023 173.008C195.82 173.008 198.035 172.762 201.668 172.27C202.254 172.48 202.547 172.844 202.547 173.359C202.547 174.109 200.965 174.59 197.801 174.801L194.707 175.223V176.77C194.707 177.871 195.152 182.336 196.043 190.164H200.543C201.152 190.164 201.527 190.504 201.668 191.184C201.668 191.91 201.117 192.273 200.016 192.273H196.043V192.414L195.938 199.691C195.938 201.426 196.113 202.691 196.465 203.488L203.426 203.031C204.176 203.125 204.551 203.453 204.551 204.016C204.551 204.766 203.73 205.141 202.09 205.141C197.871 205.375 195.762 205.598 195.762 205.809C194.918 205.809 194.332 204.52 194.004 201.941L193.828 199.27L193.898 191.289L192.598 176.77V175.68C192.598 172.773 193.031 171.32 193.898 171.32H194.004ZM224.168 172.094C224.848 172.094 225.188 172.539 225.188 173.43V175.645C225.188 178.715 226.137 187.938 228.035 203.312V203.875C228.035 204.977 227.672 205.527 226.945 205.527C226.289 205.434 225.961 205.105 225.961 204.543V203.77C225.961 202.387 225.363 197.477 224.168 189.039C220.934 189.227 219.316 189.484 219.316 189.812L219.422 189.953V190.023C219.727 194.875 219.879 199.305 219.879 203.312V206.125C219.879 207.203 219.469 207.742 218.648 207.742C218.109 207.742 217.816 207.332 217.77 206.512V203.875C217.77 199.188 217.617 194.652 217.312 190.27H217.102C216.516 190.27 216.07 190.012 215.766 189.496V188.934C216.164 188.371 216.609 188.078 217.102 188.055C217.102 186.273 216.504 181.516 215.309 173.781C215.309 173.195 215.754 172.855 216.645 172.762C217.23 172.762 217.676 174.461 217.98 177.859C218.285 179.359 218.684 182.535 219.176 187.387H219.316L224.062 186.93C223.312 180.906 222.938 176.582 222.938 173.957C222.938 172.715 223.348 172.094 224.168 172.094ZM231.762 171.32C232.348 171.32 232.688 171.766 232.781 172.656H232.676L232.781 173.008C233.578 173.008 235.793 172.762 239.426 172.27C240.012 172.48 240.305 172.844 240.305 173.359C240.305 174.109 238.723 174.59 235.559 174.801L232.465 175.223V176.77C232.465 177.871 232.91 182.336 233.801 190.164H238.301C238.91 190.164 239.285 190.504 239.426 191.184C239.426 191.91 238.875 192.273 237.773 192.273H233.801V192.414L233.695 199.691C233.695 201.426 233.871 202.691 234.223 203.488L241.184 203.031C241.934 203.125 242.309 203.453 242.309 204.016C242.309 204.766 241.488 205.141 239.848 205.141C235.629 205.375 233.52 205.598 233.52 205.809C232.676 205.809 232.09 204.52 231.762 201.941L231.586 199.27L231.656 191.289L230.355 176.77V175.68C230.355 172.773 230.789 171.32 231.656 171.32H231.762ZM254.438 172.305C254.789 172.305 255.129 172.645 255.457 173.324L255.352 173.852C257.391 187.328 258.82 197.594 259.641 204.648C259.406 205.305 259.043 205.633 258.551 205.633C257.73 205.633 257.238 203.875 257.074 200.359L256.688 197.582L254.754 197.688C253.535 197.688 251.695 197.535 249.234 197.23C247.5 203.16 246.316 206.125 245.684 206.125H245.613C244.863 205.914 244.488 205.539 244.488 205C246.387 200.359 248.449 192.414 250.676 181.164C251.637 177.695 252.516 174.895 253.312 172.762C253.641 172.457 254.016 172.305 254.438 172.305ZM249.797 195.121C251.086 195.426 252.445 195.578 253.875 195.578H255.773C256.031 195.578 256.254 195.473 256.441 195.262L253.875 178.176H253.805C253.336 178.902 252.656 181.457 251.766 185.84L249.797 195.121ZM268.922 171.25C271.031 171.438 272.297 173.359 272.719 177.016V178.492C272.438 181.422 270.961 184.363 268.289 187.316C268.805 188.418 269.871 191.957 271.488 197.934L274.441 204.684C274.137 205.316 273.738 205.598 273.246 205.527C272.613 205.504 271.629 203.688 270.293 200.078C269.379 198.273 268.371 194.945 267.27 190.094C266.988 189.25 266.766 188.816 266.602 188.793L264.246 190.023C264.293 195.156 264.504 199.996 264.879 204.543C264.832 204.918 264.539 205.258 264 205.562L263.648 205.527C262.992 205.48 262.664 204.754 262.664 203.348C262.031 190.527 261.949 181.539 262.418 176.383C261.949 175.961 261.738 175.539 261.785 175.117C261.809 174.953 262.066 174.637 262.559 174.168C262.629 173.207 263.039 172.773 263.789 172.867L264.316 173.113C266.285 171.754 267.82 171.133 268.922 171.25ZM264.527 175.574C264.27 180.707 264.188 184.703 264.281 187.562L264.598 187.598C266.895 186.52 268.805 183.988 270.328 180.004L270.574 178.492L270.609 178.176C270.82 176.043 270.34 174.438 269.168 173.359L268.605 173.324C267.809 173.254 266.449 174.004 264.527 175.574ZM297.152 172.059C297.504 172.059 297.832 172.387 298.137 173.043C296.801 178.48 295.863 184.199 295.324 190.199C294.785 196.199 294.023 201.414 293.039 205.844L292.371 206.301C291.551 206.043 291.141 205.703 291.141 205.281L293.215 191.465C291.738 189.637 290.602 187.598 289.805 185.348C288.797 182.582 286.922 178.996 284.18 174.59L283.863 173.746C283.863 173.207 284.262 172.867 285.059 172.727C285.457 172.797 286.055 173.652 286.852 175.293C288.445 177.426 290.473 181.41 292.934 187.246L293.32 188.195C294.797 176.312 296.074 170.934 297.152 172.059ZM303.094 174.977C306.234 174.977 308.766 179.371 310.688 188.16C310.945 189.988 311.121 191.863 311.215 193.785C311.215 199.48 309.703 203.324 306.68 205.316C305.484 205.762 304.559 205.984 303.902 205.984C301.418 205.984 299.766 203.992 298.945 200.008C298.547 198.484 298.348 196.715 298.348 194.699V194.137C298.348 188.676 299.285 182.852 301.16 176.664V176.312L301.02 176.207C301.277 175.387 301.969 174.977 303.094 174.977ZM303.234 177.051C301.383 182.441 300.457 188.137 300.457 194.137V194.453C300.457 199.633 301.312 202.691 303.023 203.629L303.902 203.875H304.254C306.316 203.875 307.781 202.023 308.648 198.32C308.883 197.383 309 196.293 309 195.051V193.012C309 187.34 307.523 182.289 304.57 177.859C304.008 177.32 303.562 177.051 303.234 177.051ZM323.66 171.004C324.621 171.004 325.102 173.582 325.102 178.738C325.242 179.77 325.312 182.465 325.312 186.824L325.207 193.223C325.746 199.176 326.449 202.691 327.316 203.77C327.996 204.238 328.336 204.602 328.336 204.859C328.195 205.422 327.926 205.797 327.527 205.984H327.105C325.934 205.984 324.973 204.438 324.223 201.344C324.082 201.391 323.684 202.352 323.027 204.227C322.184 205.398 321.328 205.984 320.461 205.984C317.484 205.984 315.715 202.035 315.152 194.137L313.359 173.324C313.594 172.809 313.922 172.551 314.344 172.551C315.164 172.551 315.574 173.652 315.574 175.855L317.684 198.672C318.434 202.141 319.359 203.875 320.461 203.875C321.75 203.523 322.605 199.867 323.027 192.906C322.629 186.742 322.43 181.176 322.43 176.207V172.094C322.43 171.484 322.84 171.121 323.66 171.004Z" fill="white"/>
</svg>
