<svg width="598" height="272" viewBox="0 0 598 272" fill="none" xmlns="http://www.w3.org/2000/svg">
<mask id="mask0_2256_473" style="mask-type:luminance" maskUnits="userSpaceOnUse" x="181" y="61" width="188" height="90">
<path d="M181 61H368.031V150.578H181V61Z" fill="white"/>
</mask>
<g mask="url(#mask0_2256_473)">
<mask id="mask1_2256_473" style="mask-type:alpha" maskUnits="userSpaceOnUse" x="190" y="69" width="173" height="73">
<path d="M348.098 124.492C348.098 124.492 325.457 132.859 299.125 122.277C272.793 111.695 270.455 105.666 266.025 99.3906C261.596 93.1152 265.164 82.7792 274.023 84.2558C282.883 85.7324 290.389 93.3613 288.543 100.129C286.697 106.896 285.59 109.726 281.16 112.803C276.73 115.879 268.117 121.416 253.721 118.955C239.324 116.494 217.053 104.312 204.748 94.8378" stroke="white" stroke-width="28.35" stroke-linecap="round"/>
</mask>
<g mask="url(#mask1_2256_473)">
<path d="M209.244 100.26C225.936 113.795 256.674 130.393 277.656 118.675C285.508 114.038 288.77 110.892 290.995 102.541C292.934 91.7912 280.579 79.4669 269.751 81.2781C260.396 82.8383 259.221 95.0269 264.151 101.694C267.541 108.22 278.457 116.601 283.769 118.773C299.105 127.435 315.475 131.806 333.204 130.113C336.669 129.683 348.075 128.649 347.725 124.138C347.3 122.819 346.04 123.419 345.115 123.36C335.749 124.71 326.388 125.579 316.991 124.049C303.274 122.288 290.413 116.099 278.847 108.467C273.704 104.363 267.751 99.1829 267.212 92.2244C267.162 88.3164 269.289 86.5544 273.177 87.1056C279.408 88.0112 285.728 94.1242 285.688 100.119C284.281 108.877 273.2 116.069 264.534 116.616C247.615 117.269 226.974 107.834 213.849 97.1954C218.327 96.467 223.082 95.7258 226.734 94.2226C230.386 92.7195 229.526 88.5497 225.484 89.6847C218.81 90.8758 212.106 91.7322 205.294 91.742C201.406 91.7519 199.939 93.9175 201.445 97.3825C204.192 103.692 207.486 109.607 210.36 115.858C211.197 117.679 212.425 120.262 214.709 119.248C217.219 118.146 215.754 115.334 214.868 113.384C212.909 109.102 209.912 102.705 209.244 100.26Z" fill="#85AFFF"/>
</g>
</g>
<mask id="mask2_2256_473" style="mask-type:luminance" maskUnits="userSpaceOnUse" x="285" y="0" width="274" height="272">
<path d="M559 0H285V272H559V0Z" fill="white"/>
</mask>
<g mask="url(#mask2_2256_473)">
<path d="M543.911 30.7847L540.632 125.917L539.385 162.106L360.605 142.191L333.45 153.572L337.975 136.502H299.504L304.622 80.0049L311.574 3.28369L405.866 18.4568L543.911 30.7847Z" fill="#85AFFF"/>
<mask id="mask3_2256_473" style="mask-type:alpha" maskUnits="userSpaceOnUse" x="299" y="3" width="245" height="160">
<path d="M543.911 30.7847L540.632 125.917L539.385 162.106L360.605 142.191L333.45 153.572L337.975 136.502H299.504L304.622 80.0049L311.574 3.28369L405.866 18.4568L543.911 30.7847Z" fill="#85AFFF"/>
</mask>
<g mask="url(#mask3_2256_473)">
<path d="M395.665 -32.0545C408.208 23.6982 446.754 77.1517 519.564 156.853C517.371 160.493 500.78 159.151 451.955 124.666C462.56 137.566 492.948 168.924 529.659 191.148C516.198 194.788 474.287 171.605 429.316 135.586C434.517 143.824 463.274 179.269 494.784 204.942C477.04 201.685 424.88 172.18 384.805 130.605C387.303 138.077 392.209 155.09 391.841 163.367C367.826 138.46 318.512 80.7529 313.372 49.1792C317.349 60.1 337.693 76.002 354.672 88.6473C347.279 77.3439 331.544 51.4395 327.751 38.2584C332.952 51.2863 352.989 67.764 362.167 72.1704C349.063 48.4774 323.835 -14.9648 327.751 -79.1858C327.291 -67.6902 353.907 -2.742 381.746 25.2305C378.686 20.4406 376.546 8.17971 377.463 1.09048C381.389 10.7338 391.413 30.5952 400.101 32.8945C387.405 15.4602 390.006 -15.769 395.665 -32.0545Z" fill="#6084C5"/>
</g>
</g>
<path d="M361.711 64.8477C362.438 64.8477 362.801 65.9492 362.801 68.1523C363.387 86.4805 363.949 95.6445 364.488 95.6445L365.473 95.3984L369.445 95.5039L370.781 95.1875C371.133 95.1875 371.473 95.5273 371.801 96.207C371.566 97.1445 370.605 97.6133 368.918 97.6133L365.227 97.543C364.945 97.543 364.43 97.7891 363.68 98.2812H363.152C362.426 98.2812 361.945 95.5508 361.711 90.0898C361.43 86.5977 361.055 78.4297 360.586 65.5859C360.773 65.0938 361.148 64.8477 361.711 64.8477ZM375.352 64.3203C375.938 64.3203 376.277 64.7656 376.371 65.6562H376.266L376.371 66.0078C377.168 66.0078 379.383 65.7617 383.016 65.2695C383.602 65.4805 383.895 65.8438 383.895 66.3594C383.895 67.1094 382.312 67.5898 379.148 67.8008L376.055 68.2227V69.7695C376.055 70.8711 376.5 75.3359 377.391 83.1641H381.891C382.5 83.1641 382.875 83.5039 383.016 84.1836C383.016 84.9102 382.465 85.2734 381.363 85.2734H377.391V85.4141L377.285 92.6914C377.285 94.4258 377.461 95.6914 377.812 96.4883L384.773 96.0312C385.523 96.125 385.898 96.4531 385.898 97.0156C385.898 97.7656 385.078 98.1406 383.438 98.1406C379.219 98.375 377.109 98.5977 377.109 98.8086C376.266 98.8086 375.68 97.5195 375.352 94.9414L375.176 92.2695L375.246 84.2891L373.945 69.7695V68.6797C373.945 65.7734 374.379 64.3203 375.246 64.3203H375.352ZM392.859 64.5664H394.617C396.938 64.5664 398.496 64.9766 399.293 65.7969L399.504 66.4648V66.5703C399.504 67.1562 399.141 67.4844 398.414 67.5547C397.711 66.9688 396.305 66.6758 394.195 66.6758H393.844V66.8164C393.844 71.1523 393.891 77.1641 393.984 84.8516C394.102 92.5391 394.465 96.793 395.074 97.6133C394.84 98.2695 394.441 98.5977 393.879 98.5977C392.895 99.6523 392.297 95.6211 392.086 86.5039C391.875 77.3867 391.77 70.8242 391.77 66.8164V66.6758L388.641 66.8867C388.055 66.6289 387.762 66.2656 387.762 65.7969C387.762 64.9766 389.461 64.5664 392.859 64.5664ZM403.02 72.2305C403.98 72.2305 404.625 73.8828 404.953 77.1875V77.293C404.953 79.0273 404.227 80.1758 402.773 80.7383C402.258 80.7383 401.93 80.3281 401.789 79.5078L402.773 78.1719L402.879 77.5391V77.1875C402.879 76.3438 402.586 74.9844 402 73.1094V72.9688C402.281 72.4766 402.621 72.2305 403.02 72.2305ZM413.918 65.2695C416.262 65.2695 417.926 66.6758 418.91 69.4883C419.051 69.7695 419.121 70.1797 419.121 70.7188C419.121 71.3047 418.758 71.6328 418.031 71.7031C417.398 71.7031 417 70.9297 416.836 69.3828C416.039 68.0469 415.148 67.3789 414.164 67.3789H413.672C412.242 67.3789 411.398 68.7852 411.141 71.5977V71.7031C411.141 75.0781 413.285 80.1758 417.574 86.9961C418.91 89.5977 419.578 91.7773 419.578 93.5352C419.578 95.9258 418.359 97.7773 415.922 99.0898L414.691 99.3008C412.535 99.3008 410.473 97.8242 408.504 94.8711C408.129 94.2148 407.941 93.5117 407.941 92.7617C407.941 91.5664 408.352 90.8984 409.172 90.7578H409.488C410.004 91.1094 410.262 91.4375 410.262 91.7422L410.051 92.7617V92.832C410.051 94.3555 411.305 95.7617 413.812 97.0508L414.48 97.1914H414.797C416.016 97.1914 416.906 96.1484 417.469 94.0625V93.6406C417.469 91.1328 415.84 87.4414 412.582 82.5664C410.238 77.9492 409.066 74.3281 409.066 71.7031C409.066 68.75 410.203 66.6875 412.477 65.5156L413.918 65.2695ZM435.469 64.5664H437.227C439.547 64.5664 441.105 64.9766 441.902 65.7969L442.113 66.4648V66.5703C442.113 67.1562 441.75 67.4844 441.023 67.5547C440.32 66.9688 438.914 66.6758 436.805 66.6758H436.453V66.8164C436.453 71.1523 436.5 77.1641 436.594 84.8516C436.711 92.5391 437.074 96.793 437.684 97.6133C437.449 98.2695 437.051 98.5977 436.488 98.5977C435.504 99.6523 434.906 95.6211 434.695 86.5039C434.484 77.3867 434.379 70.8242 434.379 66.8164V66.6758L431.25 66.8867C430.664 66.6289 430.371 66.2656 430.371 65.7969C430.371 64.9766 432.07 64.5664 435.469 64.5664ZM454.137 65.3047C454.488 65.3047 454.828 65.6445 455.156 66.3242L455.051 66.8516C457.09 80.3281 458.52 90.5938 459.34 97.6484C459.105 98.3047 458.742 98.6328 458.25 98.6328C457.43 98.6328 456.938 96.875 456.773 93.3594L456.387 90.582L454.453 90.6875C453.234 90.6875 451.395 90.5352 448.934 90.2305C447.199 96.1602 446.016 99.125 445.383 99.125H445.312C444.562 98.9141 444.188 98.5391 444.188 98C446.086 93.3594 448.148 85.4141 450.375 74.1641C451.336 70.6953 452.215 67.8945 453.012 65.7617C453.34 65.457 453.715 65.3047 454.137 65.3047ZM449.496 88.1211C450.785 88.4258 452.145 88.5781 453.574 88.5781H455.473C455.73 88.5781 455.953 88.4727 456.141 88.2617L453.574 71.1758H453.504C453.035 71.9023 452.355 74.457 451.465 78.8398L449.496 88.1211ZM462.258 64.8477C462.984 64.8477 463.348 65.9492 463.348 68.1523C463.934 86.4805 464.496 95.6445 465.035 95.6445L466.02 95.3984L469.992 95.5039L471.328 95.1875C471.68 95.1875 472.02 95.5273 472.348 96.207C472.113 97.1445 471.152 97.6133 469.465 97.6133L465.773 97.543C465.492 97.543 464.977 97.7891 464.227 98.2812H463.699C462.973 98.2812 462.492 95.5508 462.258 90.0898C461.977 86.5977 461.602 78.4297 461.133 65.5859C461.32 65.0938 461.695 64.8477 462.258 64.8477ZM484.934 63.7578C485.332 63.7812 485.637 64.1328 485.848 64.8125C484.559 66.9219 483.07 70.7539 481.383 76.3086C480.727 77.8789 479.801 79.4727 478.605 81.0898C481.77 89.5742 484.312 94.7422 486.234 96.5938C487.172 97.2969 487.629 97.8242 487.605 98.1758C487.418 98.832 487.055 99.1484 486.516 99.125H486.445C485.484 98.8906 483.926 97.0977 481.77 93.7461C480.27 90.7227 478.934 87.5703 477.762 84.2891L477.551 84.2539C477.246 89.5508 477.352 94.0039 477.867 97.6133C477.586 98.2461 477.199 98.5391 476.707 98.4922H476.391C475.477 98.4453 475.16 93.1484 475.441 82.6016C474.809 74.7969 474.598 69.0195 474.809 65.2695C474.855 64.4492 475.254 64.0625 476.004 64.1094C476.613 64.1328 476.918 64.625 476.918 65.5859C476.707 69.2188 476.848 73.7422 477.34 79.1562H477.41C478.277 78.3359 479.402 75.8516 480.785 71.7031C482.426 66.3594 483.809 63.7109 484.934 63.7578Z" fill="white"/>
</svg>
